<?xml version="1.0" standalone="no"?>
<!DOCTYPE svg PUBLIC "-//W3C//DTD SVG 20010904//EN"
 "http://www.w3.org/TR/2001/REC-SVG-20010904/DTD/svg10.dtd">
<svg version="1.0" xmlns="http://www.w3.org/2000/svg"
 width="803.000000pt" height="803.000000pt" viewBox="0 0 803.000000 803.000000"
 preserveAspectRatio="xMidYMid meet">
<metadata>
Created by potrace 1.11, written by Peter Selinger 2001-2013
</metadata>
<g transform="translate(0.000000,803.000000) scale(0.100000,-0.100000)"
fill="#000000" stroke="none">
<path d="M6143 7770 c-69 -15 -145 -63 -227 -143 -100 -98 -166 -182 -232
-297 -27 -47 -53 -92 -59 -102 -5 -9 -32 -54 -59 -100 -26 -46 -60 -103 -74
-128 -14 -25 -44 -76 -67 -115 -93 -156 -240 -423 -282 -514 -25 -53 -60 -129
-79 -169 -19 -40 -34 -74 -34 -76 0 -2 -18 -44 -40 -93 -23 -48 -45 -97 -49
-108 -5 -11 -20 -45 -34 -75 -13 -30 -122 -284 -241 -565 -120 -280 -224 -523
-231 -540 -7 -16 -57 -133 -110 -260 -53 -126 -103 -243 -110 -260 -21 -47
-325 -774 -336 -803 -6 -15 -17 -43 -26 -62 -23 -52 -26 -59 -223 -535 -100
-242 -186 -444 -191 -450 -5 -5 -9 14 -10 45 -1 30 -2 69 -4 85 -1 17 -5 95
-9 175 -5 80 -10 165 -12 190 -6 78 -14 307 -19 560 -18 871 -24 992 -51 1128
-32 158 -106 268 -242 358 -85 57 -281 152 -372 181 -68 22 -105 27 -185 28
-93 0 -105 -2 -167 -33 -79 -39 -186 -135 -262 -236 -65 -87 -114 -181 -205
-396 -18 -41 -36 -84 -41 -95 -119 -273 -243 -633 -410 -1190 -39 -132 -80
-267 -90 -300 -50 -158 -248 -852 -254 -889 -3 -17 -10 -44 -14 -61 l-9 -30
-6 25 c-24 98 -26 324 -3 446 2 11 7 48 11 84 4 36 9 72 10 80 1 8 6 40 10 70
4 30 9 62 10 70 2 8 6 38 9 65 4 28 9 61 11 75 2 14 9 57 15 95 6 39 19 117
30 175 11 58 21 116 24 130 2 14 7 36 10 50 3 14 8 36 10 50 2 14 16 77 31
140 14 63 28 122 30 130 30 131 61 258 76 311 11 37 23 86 28 110 9 43 54 220
126 494 20 77 38 147 40 155 2 8 9 38 15 65 6 28 13 57 15 65 2 8 15 62 29
120 38 158 75 322 81 366 4 21 10 55 15 74 5 19 11 53 15 75 3 22 9 65 15 95
5 30 7 100 6 155 -6 185 -66 310 -224 464 -179 174 -391 324 -587 416 -163 77
-284 116 -462 150 -16 3 -40 8 -56 11 -27 6 -27 5 -23 -38 3 -24 8 -72 11
-108 3 -36 8 -81 10 -100 3 -19 7 -51 9 -70 3 -19 8 -57 13 -85 15 -95 10
-355 -12 -555 -5 -48 -13 -127 -20 -200 -7 -73 -15 -152 -20 -190 -2 -19 -7
-64 -10 -100 -4 -36 -8 -76 -10 -90 -2 -14 -6 -46 -10 -73 -3 -26 -7 -68 -10
-95 -4 -26 -8 -58 -10 -72 -2 -14 -7 -50 -10 -80 -3 -30 -8 -66 -10 -80 -2
-14 -9 -63 -15 -110 -14 -114 -20 -152 -24 -175 -2 -11 -7 -47 -11 -80 -4 -32
-8 -67 -10 -75 -2 -9 -6 -43 -9 -76 -4 -32 -8 -66 -11 -74 -2 -8 -6 -35 -9
-60 -3 -25 -8 -56 -10 -70 -3 -14 -7 -43 -10 -65 -2 -22 -9 -69 -15 -105 -6
-36 -13 -82 -17 -104 -3 -21 -7 -47 -9 -58 -3 -11 -7 -46 -10 -77 -4 -31 -8
-63 -10 -71 -2 -8 -7 -35 -10 -60 -3 -25 -8 -57 -11 -71 -2 -15 -6 -47 -9 -70
-5 -43 -14 -107 -20 -140 -2 -9 -6 -40 -10 -70 -3 -30 -8 -65 -10 -79 -3 -14
-7 -45 -10 -70 -5 -45 -13 -103 -20 -150 -2 -14 -7 -50 -10 -80 -4 -30 -12
-97 -19 -149 -17 -119 -13 -296 8 -384 20 -87 72 -198 126 -273 64 -90 244
-261 347 -332 115 -78 259 -150 385 -194 73 -25 97 -37 93 -48 -3 -12 -46
-250 -70 -390 -12 -69 -29 -161 -40 -214 -7 -32 -12 -97 -11 -145 1 -75 5 -93
31 -140 46 -84 145 -158 286 -214 81 -33 123 -40 177 -32 82 12 144 97 156
217 3 31 22 133 42 225 31 148 74 361 88 433 3 14 16 83 31 155 14 71 28 143
31 160 2 16 7 37 9 45 2 8 6 32 10 54 3 21 7 41 9 45 2 3 7 29 10 56 4 28 11
66 16 85 5 19 12 55 15 80 29 204 127 610 207 858 47 147 127 372 148 417 5
11 25 59 44 106 19 47 51 121 70 163 20 43 36 80 36 82 0 7 184 374 186 371 1
-1 4 -216 8 -477 3 -261 8 -504 10 -540 3 -36 8 -105 11 -155 7 -121 14 -188
27 -260 5 -33 12 -71 14 -85 9 -51 56 -204 84 -276 87 -218 223 -419 400 -592
150 -146 336 -256 500 -293 78 -18 83 -19 155 -20 247 -5 426 95 555 312 70
119 193 371 276 569 42 102 82 194 89 205 7 11 54 126 105 255 51 129 98 249
105 265 7 17 25 64 40 105 35 95 186 467 226 555 5 11 21 54 37 95 35 90 194
473 228 548 13 29 24 55 24 57 0 3 9 24 19 48 11 23 52 114 91 202 141 312
414 850 595 1170 68 120 193 318 318 505 63 95 265 362 313 415 145 160 272
278 376 351 29 21 74 52 99 71 135 96 283 127 434 90 11 -3 76 -20 145 -37 69
-17 136 -33 150 -36 14 -3 47 -12 74 -19 27 -8 51 -13 54 -11 2 3 -68 78 -156
168 -88 90 -181 187 -208 217 -153 171 -202 206 -434 309 -43 19 -229 83 -335
115 -52 16 -371 96 -414 104 -14 2 -57 11 -96 19 -70 15 -172 16 -232 4z"/>
</g>
</svg>
